<?xml version="1.0"?>
<svg xmlns="http://www.w3.org/2000/svg" xmlns:xlink="http://www.w3.org/1999/xlink" version="1.1" width="512" height="512" x="0" y="0" viewBox="0 0 64 64" style="enable-background:new 0 0 512 512" xml:space="preserve" class=""><g><path xmlns="http://www.w3.org/2000/svg" d="m41 24c-3.35 0-6.221 2.072-7.411 5h-26.589v6h26.589c1.19 2.928 4.061 5 7.411 5s6.221-2.072 7.411-5h8.589v-6h-8.589c-1.19-2.928-4.061-5-7.411-5zm-32 9v-2h24.069c-.041.328-.069.661-.069 1s.028.672.069 1zm32 5c-3.309 0-6-2.691-6-6s2.691-6 6-6 6 2.691 6 6-2.691 6-6 6zm14-7v2h-6.069c.041-.328.069-.661.069-1s-.028-.672-.069-1zm-14-3c-2.206 0-4 1.794-4 4s1.794 4 4 4 4-1.794 4-4-1.794-4-4-4zm0 6c-1.103 0-2-.897-2-2s.897-2 2-2 2 .897 2 2-.897 2-2 2zm-18 7c-3.35 0-6.221 2.072-7.411 5h-8.589v6h8.589c1.19 2.928 4.061 5 7.411 5s6.221-2.072 7.411-5h26.589v-6h-26.589c-1.19-2.928-4.061-5-7.411-5zm-14 9v-2h6.069c-.041.328-.069.661-.069 1s.028.672.069 1zm14 5c-3.309 0-6-2.691-6-6s2.691-6 6-6 6 2.691 6 6-2.691 6-6 6zm32-7v2h-24.069c.041-.328.069-.661.069-1s-.028-.672-.069-1zm-32-3c-2.206 0-4 1.794-4 4s1.794 4 4 4 4-1.794 4-4-1.794-4-4-4zm0 6c-1.103 0-2-.897-2-2s.897-2 2-2 2 .897 2 2-.897 2-2 2zm0-44c-3.35 0-6.221 2.072-7.411 5h-8.589v6h8.589c1.19 2.928 4.061 5 7.411 5s6.221-2.072 7.411-5h26.589v-6h-26.589c-1.19-2.928-4.061-5-7.411-5zm-14 9v-2h6.069c-.041.328-.069.661-.069 1s.028.672.069 1zm14 5c-3.309 0-6-2.691-6-6s2.691-6 6-6 6 2.691 6 6-2.691 6-6 6zm32-7v2h-24.069c.041-.328.069-.661.069-1s-.028-.672-.069-1zm-32-3c-2.206 0-4 1.794-4 4s1.794 4 4 4 4-1.794 4-4-1.794-4-4-4zm0 6c-1.103 0-2-.897-2-2s.897-2 2-2 2 .897 2 2-.897 2-2 2z" fill="#0098FF" /></g></svg>
